<?xml version="1.0" encoding="utf-8"?>
<!-- Generator: Adobe Illustrator 24.0.1, SVG Export Plug-In . SVG Version: 6.00 Build 0)  -->
<svg version="1.1" id="Layer_1" xmlns="http://www.w3.org/2000/svg" xmlns:xlink="http://www.w3.org/1999/xlink" x="0px" y="0px"
	 viewBox="0 0 103 34.4" style="enable-background:new 0 0 103 34.4;" xml:space="preserve">
<style type="text/css">
	.st0{fill:#1D1D1B;}
</style>
<title>new_logo_gyeon_website</title>
<polygon class="st0" points="88.1,13.7 82.6,0.6 77.8,0.6 77.8,33.8 83.6,33.8 83.6,15.4 90.8,33.8 96.4,33.8 96.4,33.8 "/>
<polygon class="st0" points="96.4,23.4 96.4,0.6 89.9,0.6 89.9,7.7 "/>
<path class="st0" d="M9.2,17.7l1.8,4.8h1.9v1.8c0,3.4-1,5.1-3.1,5.1s-3.1-1.6-3.1-4.9V10.1c0-3.3,1-4.9,3.1-4.9c0.5,0,1,0.1,1.4,0.4
	c0.4,0.2,0.7,0.5,0.9,0.9c0.2,0.4,0.4,0.9,0.5,1.3c0.1,0.5,0.2,1,0.2,1.5c0,0.4,0.1,1,0.1,1.5v2.8h6.4v-2.4c0-1.2-0.1-2.4-0.3-3.6
	c-0.2-1-0.5-2-1-3c-0.4-0.9-1-1.7-1.8-2.4c-0.8-0.7-1.7-1.2-2.7-1.5C12.3,0.2,11,0,9.8,0C3.3,0,0,3.9,0,11.8v11.7
	c0,1,0.1,2.1,0.3,3.1c0.2,1,0.5,2,0.9,3c0.4,0.9,0.9,1.8,1.6,2.5c0.7,0.7,1.5,1.3,2.4,1.7c1,0.5,2.1,0.7,3.3,0.7
	c1.1,0,2.2-0.3,3.2-0.8c1-0.5,1.8-1.2,2.4-2.2l0.9,2.3h4.3V17.7H9.2z"/>
<polygon class="st0" points="53.3,29 46.5,29 46.5,19 50,19 51.4,14.3 46.5,14.3 46.5,5.5 51.9,5.5 53.3,0.6 43.3,0.6 39.8,13.2 
	39.8,33.8 52,33.8 "/>
<path class="st0" d="M99.1,2.4c0-1.1,0.9-2,2-2s2,0.9,2,2s-0.9,2-2,2c-1.1,0-2-0.8-2-1.8C99.1,2.5,99.1,2.4,99.1,2.4 M102.7,2.4
	c0-0.9-0.7-1.6-1.7-1.6c-0.9,0-1.6,0.7-1.6,1.7c0,0.9,0.7,1.6,1.6,1.6C102,4.1,102.7,3.4,102.7,2.4C102.7,2.4,102.7,2.4,102.7,2.4
	 M100.4,3.5C100.4,3.5,100.3,3.4,100.4,3.5C100.3,3.4,100.3,3.4,100.4,3.5l-0.1-2.1c0,0,0-0.1,0.1-0.1c0,0,0,0,0,0h0.8
	c0.3,0,0.6,0.2,0.7,0.5c0,0,0,0.1,0,0.1c0,0.3-0.2,0.5-0.4,0.6l0.4,0.9c0,0.1,0,0.1-0.1,0.1h-0.2c0,0-0.1,0-0.1-0.1l-0.4-0.8h-0.4
	l0,0v0.8c0,0,0,0.1-0.1,0.1c0,0,0,0,0,0L100.4,3.5z M101.6,1.9c0-0.2-0.1-0.4-0.4-0.4h-0.5l0,0v0.7l0,0h0.5
	C101.5,2.2,101.6,2.1,101.6,1.9"/>
<path class="st0" d="M26.3,33.8v-11L20,0.7h6.3l3.1,14.6c0.4-1.6,1-4,1.7-7.3c0.8-3.3,1.3-5.7,1.7-7.3H39l-6.3,22.2v11L26.3,33.8z"
	/>
<path class="st0" d="M54.9,22.9V11.8C54.9,3.9,58.1,0,64.6,0c6.5,0,9.7,3.9,9.7,11.8v11c0,1.2-0.1,2.4-0.3,3.7
	c-0.2,1.1-0.5,2.2-1,3.2c-0.4,1-1,1.8-1.8,2.6c-0.8,0.7-1.7,1.3-2.8,1.7c-2.5,0.8-5.2,0.8-7.6,0c-1-0.3-2-0.9-2.8-1.6
	c-0.7-0.7-1.4-1.6-1.8-2.5c-0.5-1-0.8-2.1-1-3.2C55,25.3,54.9,24.1,54.9,22.9 M67.6,24.4V10.1c0-3.3-1-4.9-3-4.9
	c-1.1,0-2.1,0.6-2.5,1.7c-0.2,0.5-0.3,1-0.4,1.5c-0.1,0.5-0.1,1.1-0.1,1.7v14.3c0,3.3,1,4.9,3,4.9C66.6,29.3,67.6,27.7,67.6,24.4"/>
</svg>
